inDegrees=yes
name=ik_Shooting_orientations
DataType=double
version=3
OpenSimVersion=4.3-2021-08-27-4bc7ad9
endheader
time	pelvis_tilt	pelvis_list	pelvis_rotation	pelvis_tx	pelvis_ty	pelvis_tz	hip_flexion_r	hip_adduction_r	hip_rotation_r	knee_angle_r	knee_angle_r_beta	ankle_angle_r	subtalar_angle_r	mtp_angle_r	hip_flexion_l	hip_adduction_l	hip_rotation_l	knee_angle_l	knee_angle_l_beta	ankle_angle_l	subtalar_angle_l	mtp_angle_l	lumbar_extension	lumbar_bending	lumbar_rotation	arm_flex_r	arm_add_r	arm_rot_r	elbow_flex_r	pro_sup_r	wrist_flex_r	wrist_dev_r	arm_flex_l	arm_add_l	arm_rot_l	elbow_flex_l	pro_sup_l	wrist_flex_l	wrist_dev_l
11.12999999999981	-3.818283374066262	3.504984266401966	-106.9499703878404	0	0.9399999999999999	0	40.00768433582083	-10.12721545236219	0	57.39765515531447	1.001778065384535	-5.037619832663619	0	0	40.00768433582083	-10.12721545236219	0	57.39765515531447	1.001778065384535	-5.037619832663619	0	0	-6.290646259505539	-9.657871662144913	5.590548518083313	24.93027946122082	16.16385461053402	23.81784561594403	74.9034351556587	45.60816735221518	0	0	0	-10.02305589350508	0	74.9034351556587	45.60816735221518	0	0
11.13999999999981	-3.821035944809734	3.496669240291592	-106.9489328240186	0	0.9399999999999999	0	40.02535747563962	-10.12574043299651	0	57.4048939768356	1.001904406654043	-5.037064630466998	0	0	40.02535747563962	-10.12574043299651	0	57.4048939768356	1.001904406654043	-5.037064630466998	0	0	-6.279727424433893	-9.635854529955187	5.596872383073512	24.91518401466558	16.19554463970964	23.69821675930809	74.90377623277438	45.6024907651833	0	0	0	-10.03215999269893	0	74.90377623277438	45.6024907651833	0	0
11.14999999999981	-3.812712671230651	3.486257095486635	-106.9581682044511	0	0.9399999999999999	0	40.03877385154892	-10.12464517863976	0	57.41039959383036	1.002000497797955	-5.036655943893018	0	0	40.03877385154892	-10.12464517863976	0	57.41039959383036	1.002000497797955	-5.036655943893018	0	0	-6.289915131845308	-9.658978343227815	5.608659420728877	24.93566103420756	16.24343159707401	23.56172615082562	74.90403518992572	45.59824936264859	0	0	0	-10.03910402896433	0	74.90403518992572	45.59824936264859	0	0
11.15999999999981	-3.814059615399359	3.474651195113175	-106.9529953079927	0	0.9399999999999999	0	40.03927413501604	-10.12460192216225	0	57.41060570594257	1.002004095132941	-5.036639388511431	0	0	40.03927413501604	-10.12460192216225	0	57.41060570594257	1.002004095132941	-5.036639388511431	0	0	-6.291040404035078	-9.647974086402558	5.60541397125136	24.92490606633024	16.27533806487143	23.43197400644506	74.90404484332811	45.59808477319876	0	0	0	-10.03936106043405	0	74.90404484332811	45.59808477319876	0	0
11.16999999999981	-3.810756877701693	3.464889433676078	-106.9557963298586	0	0.9399999999999999	0	40.03978897630836	-10.12455741081643	0	57.41081779443871	1.002007796775505	-5.036622354083214	0	0	40.03978897630836	-10.12455741081643	0	57.41081779443871	1.002007796775505	-5.036622354083214	0	0	-6.286702650068763	-9.647748785080312	5.611700713358401	24.91815541190833	16.32939220707562	23.2926948051529	74.90405477763775	45.59791540179043	0	0	0	-10.03962556110917	0	74.90405477763775	45.59791540179043	0	0
11.17999999999981	-3.808959622973827	3.466514122951901	-106.9545934159611	0	0.9399999999999999	0	40.04027477385875	-10.12451534679123	0	57.41101765936224	1.002011285076479	-5.036606251903411	0	0	40.04027477385875	-10.12451534679123	0	57.41101765936224	1.002011285076479	-5.036606251903411	0	0	-6.259985391830441	-9.628602073642275	5.612364887369078	24.92456050697616	16.40028458130929	23.16718876826754	74.90406415141892	45.59775538404748	0	0	0	-10.03987491577956	0	74.90406415141892	45.59775538404748	0	0
11.18999999999981	-3.799217485649675	3.462530419387251	-106.9556254125278	0	0.9399999999999999	0	40.04075153155494	-10.12447409534534	0	57.41121388927546	1.002014709934556	-5.036590463798103	0	0	40.04075153155494	-10.12447409534534	0	57.41121388927546	1.002014709934556	-5.036590463798103	0	0	-6.240741645542514	-9.610979803067156	5.615208789849206	24.91108777886915	16.42064987841113	23.04648309532752	74.90407335081572	45.59759843341801	0	0	0	-10.04011971346475	0	74.90407335081572	45.59759843341801	0	0
11.19999999999981	-3.798058383645976	3.461293324781206	-106.9551978491637	0	0.9399999999999999	0	40.0412219320374	-10.12443341363173	0	57.41140753703762	1.002018089725595	-5.036574896265063	0	0	40.0412219320374	-10.12443341363173	0	57.41140753703762	1.002018089725595	-5.036574896265063	0	0	-6.209302464792974	-9.581978368331088	5.621824161057062	24.8861240452737	16.45970131133012	22.92694119614654	74.90408242757076	45.59744363186588	0	0	0	-10.04036128614013	0	74.90408242757076	45.59744363186588	0	0
11.20999999999981	-3.799655197990512	3.472042614107729	-106.951421762077	0	0.9399999999999999	0	40.04176947479063	-10.12438605166313	0	57.41163284900436	1.002022022161259	-5.036556773271338	0	0	40.04176947479063	-10.12438605166313	0	57.41163284900436	1.002022022161259	-5.036556773271338	0	0	-6.175560038253217	-9.57002742479439	5.633681600108662	24.94308529649122	16.5123043023843	22.76070716596395	74.90409299282214	45.59726340898337	0	0	0	-10.04064240307392	0	74.90409299282214	45.59726340898337	0	0
11.21999999999981	-3.800688624701069	3.459162052060688	-106.9719757909374	0	0.9399999999999999	0	40.05507278851268	-10.12333709873256	0	57.41710846741027	1.002117589731025	-5.036170957745875	0	0	40.05507278851268	-10.12333709873256	0	57.41710846741027	1.002117589731025	-5.036170957745875	0	0	-6.184498539256909	-9.600216756358659	5.663126938321279	24.9854703306677	16.58126002744962	22.59708257928778	74.90434981542495	45.59316032500303	0	0	0	-10.04757711641449	0	74.90434981542495	45.59316032500303	0	0
11.22999999999981	-3.792553821074607	3.450534796656136	-106.9822795090191	0	0.9399999999999999	0	40.06761537933126	-10.12234112755183	0	57.42226835278746	1.002207646719882	-5.035803434653397	0	0	40.06761537933126	-10.12234112755183	0	57.42226835278746	1.002207646719882	-5.035803434653397	0	0	-6.203833343415875	-9.617132124295576	5.681888179335229	25.03400790771029	16.61610102343094	22.45384022038833	74.90459194305834	45.58927289351252	0	0	0	-10.05410686674253	0	74.90459194305834	45.58927289351252	0	0
11.2399999999998	-3.794961436624331	3.442232925962494	-106.9848086004831	0	0.9399999999999999	0	40.08184504153949	-10.12120211293718	0	57.42811910499583	1.002309761609636	-5.035381676128823	0	0	40.08184504153949	-10.12120211293718	0	57.42811910499583	1.002309761609636	-5.035381676128823	0	0	-6.210782422234999	-9.60877293429291	5.68812281710472	25.05947039609399	16.64691050387334	22.32391454275148	74.90486662640593	45.58483764609222	0	0	0	-10.06150335176918	0	74.90486662640593	45.58483764609222	0	0
11.2499999999998	-3.792361216211138	3.432884733222018	-106.9814424324561	0	0.9399999999999999	0	40.08229272227879	-10.12116410455444	0	57.42830377573141	1.002312984722004	-5.035367232827701	0	0	40.08229272227879	-10.12116410455444	0	57.42830377573141	1.002312984722004	-5.035367232827701	0	0	-6.192398727476009	-9.594516325490579	5.674575005985882	25.04223984319894	16.68113851260455	22.20558364512281	74.90487526566805	45.58469228065993	0	0	0	-10.0617342262561	0	74.90487526566805	45.58469228065993	0	0
11.2599999999998	-3.780423346485433	3.418227518916012	-106.9910884088569	0	0.9399999999999999	0	40.08278689657823	-10.12112206379054	0	57.42850731334482	1.00231653712351	-5.035351250479673	0	0	40.08278689657823	-10.12112206379054	0	57.42850731334482	1.00231653712351	-5.035351250479673	0	0	-6.175470851220221	-9.58921438016052	5.664403722184437	25.02336883836374	16.71862038350039	22.10289093648968	74.90488480202505	45.58453155375434	0	0	0	-10.06198880285301	0	74.90488480202505	45.58453155375434	0	0
11.2699999999998	-3.752214281353787	3.400834802409084	-107.0120054126476	0	0.9399999999999999	0	40.08349363265243	-10.12106172451207	0	57.42879757486531	1.002321603142734	-5.035328295504399	0	0	40.08349363265243	-10.12106172451207	0	57.42879757486531	1.002321603142734	-5.035328295504399	0	0	-6.130953905896587	-9.596993598108792	5.665246995640647	24.98942004143645	16.74945743336279	22.00223862311649	74.90489843996328	45.5843010179354	0	0	0	-10.06235215147614	0	74.90489843996328	45.5843010179354	0	0
11.2799999999998	-3.740573131666353	3.383127232155268	-107.0531906371539	0	0.9399999999999999	0	40.08432743122965	-10.12099056032589	0	57.42914002466593	1.002327580019278	-5.03530122641213	0	0	40.08432743122965	-10.12099056032589	0	57.42914002466593	1.002327580019278	-5.03530122641213	0	0	-6.103530669861525	-9.602655443529217	5.699341101595934	24.9749807986575	16.78219700880574	21.91229045571979	74.90491452986443	45.5840290967145	0	0	0	-10.06278085149039	0	74.90491452986443	45.5840290967145	0	0
11.2899999999998	-3.743259697514424	3.395930768353803	-107.0625224214752	0	0.9399999999999999	0	40.09831113802187	-10.11987882649953	0	57.43489450555558	1.002428014657545	-5.034890553005174	0	0	40.09831113802187	-10.11987882649953	0	57.43489450555558	1.002428014657545	-5.034890553005174	0	0	-6.081480400111428	-9.58705189793387	5.696655023111784	24.96856851042308	16.83121311042437	21.80057302591029	74.90518447553019	45.57969225858162	0	0	0	-10.07006136962416	0	74.90518447553019	45.57969225858162	0	0
11.2999999999998	-3.74100120046223	3.416354963886147	-107.0510046103818	0	0.9399999999999999	0	40.11376670421726	-10.11864750635075	0	57.44125292860697	1.002538990075027	-5.034435431132862	0	0	40.11376670421726	-10.11864750635075	0	57.44125292860697	1.002538990075027	-5.034435431132862	0	0	-6.045670756320077	-9.577201574833655	5.688060865133668	24.96904418021	16.87015200123663	21.69077546430187	74.90548282959648	45.57489136792579	0	0	0	-10.0781037928183	0	74.90548282959648	45.57489136792579	0	0
11.3099999999998	-3.74741488788765	3.430903213774875	-107.0438945195765	0	0.9399999999999999	0	40.12813921448165	-10.11752579165032	0	57.44717659824346	1.002642377613984	-5.034024234822405	0	0	40.12813921448165	-10.11752579165032	0	57.44717659824346	1.002642377613984	-5.034024234822405	0	0	-6.026831934292977	-9.554623851439878	5.677983211113178	24.96881887827121	16.91929486192717	21.58025858935569	74.9057603066032	45.57049214037201	0	0	0	-10.08561496770211	0	74.9057603066032	45.57049214037201	0	0
11.3199999999998	-3.737268757040126	3.448780798785633	-107.0353386615106	0	0.9399999999999999	0	40.1285791081508	-10.11748924392323	0	57.44735848674357	1.002645552167183	-5.034010462663833	0	0	40.1285791081508	-10.11748924392323	0	57.44735848674357	1.002645552167183	-5.034010462663833	0	0	-6.007293551438977	-9.527040582294987	5.669164932950783	24.94191777134539	16.93857268886042	21.46830657427665	74.90576879659397	45.57035151629048	0	0	0	-10.08584292518628	0	74.90576879659397	45.57035151629048	0	0
11.3299999999998	-3.74109310529027	3.458396597903826	-107.0323745860314	0	0.9399999999999999	0	40.12899604067126	-10.11745463441303	0	57.44753096245287	1.00264856243619	-5.033997424098967	0	0	40.12899604067126	-10.11745463441303	0	57.44753096245287	1.00264856243619	-5.033997424098967	0	0	-5.996206459751237	-9.49208303458582	5.660833676487246	24.89049660413354	16.96544400918523	21.35343570673302	74.90577684347514	45.57021832382258	0	0	0	-10.08605906425063	0	74.90577684347514	45.57021832382258	0	0
11.3399999999998	-3.744518523338841	3.476100417079219	-107.0274793714023	0	0.9399999999999999	0	40.1295072628695	-10.11741220129806	0	57.44774239470131	1.00265225262507	-5.0339814398491	0	0	40.1295072628695	-10.11741220129806	0	57.44774239470131	1.00265225262507	-5.0339814398491	0	0	-5.97500369275788	-9.463544888545275	5.669347949023892	24.89450193607647	16.98525869532832	21.2133456031956	74.90578671015896	45.57005501259091	0	0	0	-10.08632404967876	0	74.90578671015896	45.57005501259091	0	0
11.3499999999998	-3.742524502414663	3.487473506567793	-107.0384135408945	0	0.9399999999999999	0	40.13009701468399	-10.11736305720783	0	57.44798558623371	1.002656497118023	-5.033962912325157	0	0	40.13009701468399	-10.11736305720783	0	57.44798558623371	1.002656497118023	-5.033962912325157	0	0	-5.968020536978026	-9.447571798311593	5.681338772583517	24.90229149920787	17.01413808493523	21.09905237149171	74.90579809218195	45.56986601190971	0	0	0	-10.08662909862927	0	74.90579809218195	45.56986601190971	0	0
